<mxfile host="65bd71144e">
    <diagram name="Page-1" id="2YBvvXClWsGukQMizWep">
        <mxGraphModel dx="1836" dy="486" grid="1" gridSize="10" guides="1" tooltips="1" connect="1" arrows="1" fold="1" page="1" pageScale="1" pageWidth="850" pageHeight="1100" math="0" shadow="0">
            <root>
                <mxCell id="0"/>
                <mxCell id="1" parent="0"/>
                <mxCell id="poSc07bkQ7n7ApYLcPto-1" value="User" style="shape=umlActor;verticalLabelPosition=bottom;verticalAlign=top;html=1;outlineConnect=0;" parent="1" vertex="1">
                    <mxGeometry x="80" y="70" width="30" height="60" as="geometry"/>
                </mxCell>
                <mxCell id="poSc07bkQ7n7ApYLcPto-2" value="TX Raw Data" style="shape=umlLifeline;perimeter=lifelinePerimeter;whiteSpace=wrap;html=1;container=1;dropTarget=0;collapsible=0;recursiveResize=0;outlineConnect=0;portConstraint=eastwest;newEdgeStyle={&quot;curved&quot;:0,&quot;rounded&quot;:0};" parent="1" vertex="1">
                    <mxGeometry x="45" y="170" width="100" height="500" as="geometry"/>
                </mxCell>
                <mxCell id="poSc07bkQ7n7ApYLcPto-5" value="" style="html=1;points=[[0,0,0,0,5],[0,1,0,0,-5],[1,0,0,0,5],[1,1,0,0,-5]];perimeter=orthogonalPerimeter;outlineConnect=0;targetShapes=umlLifeline;portConstraint=eastwest;newEdgeStyle={&quot;curved&quot;:0,&quot;rounded&quot;:0};" parent="poSc07bkQ7n7ApYLcPto-2" vertex="1">
                    <mxGeometry x="45" y="80" width="10" height="130" as="geometry"/>
                </mxCell>
                <mxCell id="poSc07bkQ7n7ApYLcPto-20" value="" style="html=1;points=[[0,0,0,0,5],[0,1,0,0,-5],[1,0,0,0,5],[1,1,0,0,-5]];perimeter=orthogonalPerimeter;outlineConnect=0;targetShapes=umlLifeline;portConstraint=eastwest;newEdgeStyle={&quot;curved&quot;:0,&quot;rounded&quot;:0};" parent="poSc07bkQ7n7ApYLcPto-2" vertex="1">
                    <mxGeometry x="46" y="250" width="10" height="210" as="geometry"/>
                </mxCell>
                <mxCell id="poSc07bkQ7n7ApYLcPto-21" value="Passkey verify:&lt;div&gt;output:&amp;nbsp;&lt;b style=&quot;color: rgb(126, 166, 224); text-align: center;&quot;&gt;signature 2&amp;nbsp;&lt;/b&gt;&amp;amp; clientDataJson &amp;amp; authData&lt;/div&gt;" style="html=1;align=left;spacingLeft=2;endArrow=block;rounded=0;edgeStyle=orthogonalEdgeStyle;curved=0;rounded=0;" parent="poSc07bkQ7n7ApYLcPto-2" target="poSc07bkQ7n7ApYLcPto-20" edge="1">
                    <mxGeometry x="0.0119" relative="1" as="geometry">
                        <mxPoint x="55" y="210" as="sourcePoint"/>
                        <Array as="points">
                            <mxPoint x="75" y="210"/>
                            <mxPoint x="75" y="250"/>
                        </Array>
                        <mxPoint as="offset"/>
                    </mxGeometry>
                </mxCell>
                <mxCell id="poSc07bkQ7n7ApYLcPto-3" value="TX Wrapper" style="shape=umlLifeline;perimeter=lifelinePerimeter;whiteSpace=wrap;html=1;container=1;dropTarget=0;collapsible=0;recursiveResize=0;outlineConnect=0;portConstraint=eastwest;newEdgeStyle={&quot;curved&quot;:0,&quot;rounded&quot;:0};" parent="1" vertex="1">
                    <mxGeometry x="230" y="170" width="100" height="140" as="geometry"/>
                </mxCell>
                <mxCell id="poSc07bkQ7n7ApYLcPto-7" value="" style="html=1;points=[[0,0,0,0,5],[0,1,0,0,-5],[1,0,0,0,5],[1,1,0,0,-5]];perimeter=orthogonalPerimeter;outlineConnect=0;targetShapes=umlLifeline;portConstraint=eastwest;newEdgeStyle={&quot;curved&quot;:0,&quot;rounded&quot;:0};" parent="poSc07bkQ7n7ApYLcPto-3" vertex="1">
                    <mxGeometry x="45" y="80" width="10" height="40" as="geometry"/>
                </mxCell>
                <mxCell id="poSc07bkQ7n7ApYLcPto-8" value="request &lt;font color=&quot;#990000&quot;&gt;userOP&lt;/font&gt; hash by tx raw data" style="html=1;verticalAlign=bottom;endArrow=block;curved=0;rounded=0;" parent="1" target="poSc07bkQ7n7ApYLcPto-7" edge="1">
                    <mxGeometry width="80" relative="1" as="geometry">
                        <mxPoint x="100" y="250" as="sourcePoint"/>
                        <mxPoint x="180" y="270" as="targetPoint"/>
                        <Array as="points">
                            <mxPoint x="210" y="250"/>
                        </Array>
                    </mxGeometry>
                </mxCell>
                <mxCell id="poSc07bkQ7n7ApYLcPto-9" value="&lt;font color=&quot;#990000&quot;&gt;userOP hash &lt;/font&gt;&lt;i&gt;without signature&lt;/i&gt;" style="html=1;verticalAlign=bottom;endArrow=open;dashed=1;endSize=8;curved=0;rounded=0;" parent="1" edge="1">
                    <mxGeometry relative="1" as="geometry">
                        <mxPoint x="279.5" y="290" as="sourcePoint"/>
                        <mxPoint x="100" y="290" as="targetPoint"/>
                    </mxGeometry>
                </mxCell>
                <mxCell id="poSc07bkQ7n7ApYLcPto-10" value="AirAccount Node Cluster" style="shape=umlLifeline;perimeter=lifelinePerimeter;whiteSpace=wrap;html=1;container=1;dropTarget=0;collapsible=0;recursiveResize=0;outlineConnect=0;portConstraint=eastwest;newEdgeStyle={&quot;curved&quot;:0,&quot;rounded&quot;:0};" parent="1" vertex="1">
                    <mxGeometry x="384" y="170" width="140" height="440" as="geometry"/>
                </mxCell>
                <mxCell id="poSc07bkQ7n7ApYLcPto-14" value="" style="html=1;points=[[0,0,0,0,5],[0,1,0,0,-5],[1,0,0,0,5],[1,1,0,0,-5]];perimeter=orthogonalPerimeter;outlineConnect=0;targetShapes=umlLifeline;portConstraint=eastwest;newEdgeStyle={&quot;curved&quot;:0,&quot;rounded&quot;:0};" parent="poSc07bkQ7n7ApYLcPto-10" vertex="1">
                    <mxGeometry x="66" y="155" width="10" height="35" as="geometry"/>
                </mxCell>
                <mxCell id="poSc07bkQ7n7ApYLcPto-23" value="" style="html=1;points=[[0,0,0,0,5],[0,1,0,0,-5],[1,0,0,0,5],[1,1,0,0,-5]];perimeter=orthogonalPerimeter;outlineConnect=0;targetShapes=umlLifeline;portConstraint=eastwest;newEdgeStyle={&quot;curved&quot;:0,&quot;rounded&quot;:0};" parent="poSc07bkQ7n7ApYLcPto-10" vertex="1">
                    <mxGeometry x="66" y="290" width="10" height="90" as="geometry"/>
                </mxCell>
                <mxCell id="poSc07bkQ7n7ApYLcPto-25" value="create verify session&lt;br&gt;&lt;i&gt;include: challenge &amp;amp; userOP hash&lt;/i&gt;" style="html=1;align=left;spacingLeft=2;endArrow=block;rounded=0;edgeStyle=orthogonalEdgeStyle;curved=0;rounded=0;exitX=1;exitY=0;exitDx=0;exitDy=5;exitPerimeter=0;" parent="poSc07bkQ7n7ApYLcPto-10" source="poSc07bkQ7n7ApYLcPto-14" edge="1">
                    <mxGeometry x="1" y="20" relative="1" as="geometry">
                        <mxPoint x="130" y="170" as="sourcePoint"/>
                        <Array as="points">
                            <mxPoint x="106" y="160"/>
                            <mxPoint x="106" y="180"/>
                        </Array>
                        <mxPoint x="76" y="180" as="targetPoint"/>
                        <mxPoint as="offset"/>
                    </mxGeometry>
                </mxCell>
                <mxCell id="poSc07bkQ7n7ApYLcPto-13" value="request passkey&amp;nbsp;&lt;font color=&quot;#cc6600&quot;&gt;challenge(by userOP hash)&amp;nbsp;&lt;/font&gt;with &lt;font color=&quot;#990000&quot;&gt;userOP hash&lt;/font&gt;" style="html=1;verticalAlign=bottom;endArrow=block;curved=0;rounded=0;" parent="1" edge="1">
                    <mxGeometry width="80" relative="1" as="geometry">
                        <mxPoint x="100" y="325" as="sourcePoint"/>
                        <mxPoint x="450" y="325" as="targetPoint"/>
                    </mxGeometry>
                </mxCell>
                <mxCell id="poSc07bkQ7n7ApYLcPto-16" value="&lt;font color=&quot;#cc6600&quot;&gt;challenge&lt;/font&gt;" style="html=1;verticalAlign=bottom;endArrow=open;dashed=1;endSize=8;curved=0;rounded=0;" parent="1" edge="1">
                    <mxGeometry relative="1" as="geometry">
                        <mxPoint x="450" y="360" as="sourcePoint"/>
                        <mxPoint x="100" y="360" as="targetPoint"/>
                    </mxGeometry>
                </mxCell>
                <mxCell id="poSc07bkQ7n7ApYLcPto-22" value="begin&amp;nbsp;&lt;b&gt;&lt;font color=&quot;#7ea6e0&quot;&gt;signature 2&amp;nbsp;&lt;/font&gt;&lt;font color=&quot;#ffffff&quot;&gt;verify&lt;/font&gt;&lt;/b&gt;" style="html=1;verticalAlign=bottom;endArrow=block;curved=0;rounded=0;" parent="1" edge="1">
                    <mxGeometry width="80" relative="1" as="geometry">
                        <mxPoint x="100" y="460" as="sourcePoint"/>
                        <mxPoint x="450" y="460" as="targetPoint"/>
                    </mxGeometry>
                </mxCell>
                <mxCell id="poSc07bkQ7n7ApYLcPto-26" value="tip: &lt;b&gt;public key &lt;/b&gt;already saved in AirAccount Node when register" style="label;fontStyle=0;strokeColor=none;fillColor=none;align=left;verticalAlign=top;overflow=hidden;spacingLeft=28;spacingRight=4;rotatable=0;points=[[0,0.5],[1,0.5]];portConstraint=eastwest;imageWidth=16;imageHeight=16;whiteSpace=wrap;html=1;image=img/clipart/Gear_128x128.png;fontSize=9;" parent="1" vertex="1">
                    <mxGeometry x="130" y="464" width="320" height="26" as="geometry"/>
                </mxCell>
                <mxCell id="poSc07bkQ7n7ApYLcPto-38" value="loop" style="shape=umlFrame;whiteSpace=wrap;html=1;pointerEvents=0;" parent="1" vertex="1">
                    <mxGeometry x="20" y="510" width="490" height="80" as="geometry"/>
                </mxCell>
                <mxCell id="poSc07bkQ7n7ApYLcPto-27" value="loop: &lt;b style=&quot;&quot;&gt;&lt;font color=&quot;#ffffff&quot;&gt;signature&amp;nbsp;&lt;/font&gt;&lt;/b&gt;result&lt;br&gt;return: &lt;font color=&quot;#ff99cc&quot;&gt;signature 1&lt;/font&gt;" style="html=1;verticalAlign=bottom;endArrow=open;dashed=1;endSize=8;curved=0;rounded=0;" parent="1" edge="1">
                    <mxGeometry x="-0.0222" relative="1" as="geometry">
                        <mxPoint x="450" y="550" as="sourcePoint"/>
                        <mxPoint x="100" y="550" as="targetPoint"/>
                        <mxPoint as="offset"/>
                    </mxGeometry>
                </mxCell>
                <mxCell id="poSc07bkQ7n7ApYLcPto-39" value="OnChain" style="shape=umlLifeline;perimeter=lifelinePerimeter;whiteSpace=wrap;html=1;container=1;dropTarget=0;collapsible=0;recursiveResize=0;outlineConnect=0;portConstraint=eastwest;newEdgeStyle={&quot;curved&quot;:0,&quot;rounded&quot;:0};" parent="1" vertex="1">
                    <mxGeometry x="830" y="170" width="140" height="530" as="geometry"/>
                </mxCell>
                <mxCell id="poSc07bkQ7n7ApYLcPto-42" value="" style="html=1;points=[[0,0,0,0,5],[0,1,0,0,-5],[1,0,0,0,5],[1,1,0,0,-5]];perimeter=orthogonalPerimeter;outlineConnect=0;targetShapes=umlLifeline;portConstraint=eastwest;newEdgeStyle={&quot;curved&quot;:0,&quot;rounded&quot;:0};" parent="poSc07bkQ7n7ApYLcPto-39" vertex="1">
                    <mxGeometry x="65" y="460" width="10" height="50" as="geometry"/>
                </mxCell>
                <mxCell id="poSc07bkQ7n7ApYLcPto-40" value="append &lt;font color=&quot;#990000&quot;&gt;userOP hash&lt;/font&gt;&lt;font color=&quot;#cc6600&quot;&gt; &lt;/font&gt;with &lt;b&gt;&lt;font color=&quot;#ff99cc&quot;&gt;signature 1&lt;/font&gt;&lt;/b&gt;" style="html=1;verticalAlign=bottom;endArrow=block;curved=0;rounded=0;" parent="1" target="poSc07bkQ7n7ApYLcPto-42" edge="1">
                    <mxGeometry x="0.0005" width="80" relative="1" as="geometry">
                        <mxPoint x="100" y="630" as="sourcePoint"/>
                        <mxPoint x="890" y="630" as="targetPoint"/>
                        <mxPoint as="offset"/>
                    </mxGeometry>
                </mxCell>
                <mxCell id="poSc07bkQ7n7ApYLcPto-45" value="" style="line;strokeWidth=1;fillColor=none;align=left;verticalAlign=middle;spacingTop=-1;spacingLeft=3;spacingRight=3;rotatable=0;labelPosition=right;points=[];portConstraint=eastwest;strokeColor=inherit;" parent="1" vertex="1">
                    <mxGeometry x="75" y="400" width="40" height="8" as="geometry"/>
                </mxCell>
                <mxCell id="poSc07bkQ7n7ApYLcPto-46" value="&lt;font style=&quot;font-size: 10px;&quot;&gt;Popup&lt;br&gt;for confirmation&lt;/font&gt;" style="text;align=center;fontStyle=1;verticalAlign=middle;spacingLeft=3;spacingRight=3;strokeColor=none;rotatable=0;points=[[0,0.5],[1,0.5]];portConstraint=eastwest;html=1;" parent="1" vertex="1">
                    <mxGeometry x="10" y="391" width="80" height="26" as="geometry"/>
                </mxCell>
                <mxCell id="poSc07bkQ7n7ApYLcPto-47" value="Pre-Condition" style="shape=umlFrame;whiteSpace=wrap;html=1;pointerEvents=0;width=100;height=20;" parent="1" vertex="1">
                    <mxGeometry x="-330" y="160" width="330" height="100" as="geometry"/>
                </mxCell>
                <mxCell id="poSc07bkQ7n7ApYLcPto-48" value="1. register passkey with speific sigature alg" style="text;html=1;align=center;verticalAlign=middle;resizable=0;points=[];autosize=1;strokeColor=none;fillColor=none;" parent="1" vertex="1">
                    <mxGeometry x="-310" y="188" width="250" height="30" as="geometry"/>
                </mxCell>
                <mxCell id="poSc07bkQ7n7ApYLcPto-49" value="2. node keeps public key after passkey registry" style="text;html=1;align=center;verticalAlign=middle;resizable=0;points=[];autosize=1;strokeColor=none;fillColor=none;" parent="1" vertex="1">
                    <mxGeometry x="-310" y="218" width="270" height="30" as="geometry"/>
                </mxCell>
                <mxCell id="4" value="Concent" style="shape=umlFrame;whiteSpace=wrap;html=1;pointerEvents=0;width=100;height=20;" vertex="1" parent="1">
                    <mxGeometry x="-330" y="280" width="330" height="160" as="geometry"/>
                </mxCell>
                <mxCell id="5" value="&lt;font color=&quot;#ff99cc&quot;&gt;signature &lt;/font&gt;1: AA private key sign ( k1)" style="text;html=1;align=left;verticalAlign=middle;resizable=0;points=[];autosize=1;strokeColor=none;fillColor=none;" vertex="1" parent="1">
                    <mxGeometry x="-285" y="325" width="220" height="30" as="geometry"/>
                </mxCell>
                <mxCell id="6" value="&lt;font color=&quot;#7ea6e0&quot;&gt;signature &lt;/font&gt;2: Passkey Key sign (r1)" style="text;html=1;align=left;verticalAlign=middle;resizable=0;points=[];autosize=1;strokeColor=none;fillColor=none;" vertex="1" parent="1">
                    <mxGeometry x="-285" y="355" width="210" height="30" as="geometry"/>
                </mxCell>
                <mxCell id="7" value="signature 3: BLS-TSS" style="text;html=1;align=left;verticalAlign=middle;resizable=0;points=[];autosize=1;strokeColor=none;fillColor=none;" vertex="1" parent="1">
                    <mxGeometry x="-285" y="387" width="140" height="30" as="geometry"/>
                </mxCell>
            </root>
        </mxGraphModel>
    </diagram>
</mxfile>